# xmcd
#
# Track frame offsets:
# 150
# 16837
# 30525
# 46537
# 61650
# 77137
# 98485
# 115425
# 128937
# 144450
#
# Disc length: 2121 seconds
#
#
# Revision: 0
# Processed by: cddbd v1.5PL3 Copyright (c) Steve Scherf et al.
# Submitted via: FreeRIP 2.70 
#
DISCID=7208470a
DTITLE=Straight Ahead - The Sunny Side of Country-Music
DYEAR=1900
DGENRE=Country
TTITLE0=Living On Love
TTITLE1=Crazy Arms
TTITLE2=Today I Started Loving You Again
TTITLE3=Don't Be Sad
TTITLE4=This Is Me Missing You
TTITLE5=Zrügg Im Seislerländli
TTITLE6=Walking On The Moon
TTITLE7=I've Got My Baby
TTITLE8=I Hear Your Knocking
TTITLE9=Tonight The Bottle Let Me Down
EXTD=
EXTT0=
EXTT1=
EXTT2=
EXTT3=
EXTT4=
EXTT5=
EXTT6=
EXTT7=
EXTT8=
EXTT9=
PLAYORDER=
